<svg xmlns="http://www.w3.org/2000/svg" width="512" height="512" viewBox="0 0 512 512" fill="none">
  <rect width="512" height="512" rx="108" fill="#0f172a"/>
  <!-- Praying hands -->
  <g transform="translate(256, 240)" stroke="#94a3b8" stroke-width="8" stroke-linecap="round" stroke-linejoin="round" fill="none">
    <!-- Left hand -->
    <path d="M-8,-120 C-8,-120 -30,-80 -35,-40 C-40,0 -38,20 -35,45 C-32,70 -20,100 -15,120 C-12,132 -8,145 -5,155" stroke="#e2e8f0" stroke-width="10"/>
    <!-- Right hand -->
    <path d="M8,-120 C8,-120 30,-80 35,-40 C40,0 38,20 35,45 C32,70 20,100 15,120 C12,132 8,145 5,155" stroke="#e2e8f0" stroke-width="10"/>
    <!-- Left fingers -->
    <path d="M-8,-120 C-8,-130 -6,-142 -4,-150" stroke="#e2e8f0" stroke-width="8"/>
    <path d="M-16,-115 C-18,-128 -16,-140 -13,-150" stroke="#e2e8f0" stroke-width="7"/>
    <path d="M-24,-108 C-28,-120 -26,-135 -22,-145" stroke="#e2e8f0" stroke-width="6"/>
    <path d="M-31,-98 C-36,-110 -35,-125 -30,-135" stroke="#e2e8f0" stroke-width="5"/>
    <!-- Right fingers -->
    <path d="M8,-120 C8,-130 6,-142 4,-150" stroke="#e2e8f0" stroke-width="8"/>
    <path d="M16,-115 C18,-128 16,-140 13,-150" stroke="#e2e8f0" stroke-width="7"/>
    <path d="M24,-108 C28,-120 26,-135 22,-145" stroke="#e2e8f0" stroke-width="6"/>
    <path d="M31,-98 C36,-110 35,-125 30,-135" stroke="#e2e8f0" stroke-width="5"/>
    <!-- Wrists -->
    <path d="M-5,155 C-3,170 -2,180 0,185 C2,180 3,170 5,155" stroke="#e2e8f0" stroke-width="10"/>
    <!-- Subtle glow rays -->
    <line x1="0" y1="-175" x2="0" y2="-195" stroke="#38bdf8" stroke-width="3" opacity="0.6"/>
    <line x1="-25" y1="-170" x2="-35" y2="-188" stroke="#38bdf8" stroke-width="2.5" opacity="0.5"/>
    <line x1="25" y1="-170" x2="35" y2="-188" stroke="#38bdf8" stroke-width="2.5" opacity="0.5"/>
    <line x1="-48" y1="-155" x2="-62" y2="-168" stroke="#38bdf8" stroke-width="2" opacity="0.4"/>
    <line x1="48" y1="-155" x2="62" y2="-168" stroke="#38bdf8" stroke-width="2" opacity="0.4"/>
  </g>
</svg>
